{
    "asset" : {
        "generator" : "Khronos glTF Blender I/O v1.2.75",
        "version" : "2.0"
    },
    "scene" : 0,
    "scenes" : [
        {
            "name" : "Scene",
            "nodes" : [
                0
            ]
        }
    ],
    "nodes" : [
        {
            "mesh" : 0,
            "name" : "Sketchup"
        }
    ],
    "materials" : [
        {
            "doubleSided" : true,
            "emissiveFactor" : [
                0,
                0,
                0
            ],
            "name" : "<DarkGoldenrod>",
            "pbrMetallicRoughness" : {
                "baseColorFactor" : [
                    0.859173595905304,
                    0.8122414946556091,
                    0.40982574224472046,
                    1
                ],
                "metallicFactor" : 0,
                "roughnessFactor" : 0.5
            }
        },
        {
            "doubleSided" : true,
            "emissiveFactor" : [
                0,
                0,
                0
            ],
            "name" : "<OliveDrab>",
            "pbrMetallicRoughness" : {
                "baseColorFactor" : [
                    0.14799802005290985,
                    0.2758328318595886,
                    0.012663720175623894,
                    1
                ],
                "metallicFactor" : 0,
                "roughnessFactor" : 0.5
            }
        },
        {
            "doubleSided" : true,
            "emissiveFactor" : [
                0,
                0,
                0
            ],
            "name" : "<SaddleBrown>",
            "pbrMetallicRoughness" : {
                "baseColorFactor" : [
                    0.26317471265792847,
                    0.05637409910559654,
                    0.003302703145891428,
                    1
                ],
                "metallicFactor" : 0,
                "roughnessFactor" : 0.5
            }
        },
        {
            "doubleSided" : true,
            "emissiveFactor" : [
                0,
                0,
                0
            ],
            "name" : "*2",
            "pbrMetallicRoughness" : {
                "baseColorFactor" : [
                    0.38377463817596436,
                    0.288815975189209,
                    0.08241420239210129,
                    1
                ],
                "metallicFactor" : 0,
                "roughnessFactor" : 0.5
            }
        },
        {
            "doubleSided" : true,
            "emissiveFactor" : [
                0,
                0,
                0
            ],
            "name" : "<SandyBrown>",
            "pbrMetallicRoughness" : {
                "baseColorFactor" : [
                    0.9075471758842468,
                    0.37867626547813416,
                    0.11657577753067017,
                    1
                ],
                "metallicFactor" : 0,
                "roughnessFactor" : 0.5
            }
        },
        {
            "alphaMode" : "BLEND",
            "doubleSided" : true,
            "emissiveFactor" : [
                0,
                0,
                0
            ],
            "name" : "*1",
            "pbrMetallicRoughness" : {
                "baseColorFactor" : [
                    0.17677432298660278,
                    0.0915183499455452,
                    0.0915183499455452,
                    0.4300000071525574
                ],
                "metallicFactor" : 0,
                "roughnessFactor" : 0.5
            }
        },
        {
            "doubleSided" : true,
            "emissiveFactor" : [
                0,
                0,
                0
            ],
            "name" : "*3",
            "pbrMetallicRoughness" : {
                "baseColorFactor" : [
                    0.10363409668207169,
                    0.07592611759901047,
                    0.05284162610769272,
                    1
                ],
                "metallicFactor" : 0,
                "roughnessFactor" : 0.5
            }
        },
        {
            "doubleSided" : true,
            "emissiveFactor" : [
                0,
                0,
                0
            ],
            "name" : "Material",
            "pbrMetallicRoughness" : {
                "baseColorFactor" : [
                    0.800000011920929,
                    0.800000011920929,
                    0.800000011920929,
                    1
                ],
                "metallicFactor" : 0,
                "roughnessFactor" : 0.4000000059604645
            }
        }
    ],
    "meshes" : [
        {
            "name" : "Sketchup.004",
            "primitives" : [
                {
                    "attributes" : {
                        "POSITION" : 0,
                        "NORMAL" : 1
                    },
                    "indices" : 2,
                    "material" : 0
                },
                {
                    "attributes" : {
                        "POSITION" : 3,
                        "NORMAL" : 4
                    },
                    "indices" : 5,
                    "material" : 1
                },
                {
                    "attributes" : {
                        "POSITION" : 6,
                        "NORMAL" : 7
                    },
                    "indices" : 8,
                    "material" : 2
                },
                {
                    "attributes" : {
                        "POSITION" : 9,
                        "NORMAL" : 10
                    },
                    "indices" : 11,
                    "material" : 3
                },
                {
                    "attributes" : {
                        "POSITION" : 12,
                        "NORMAL" : 13
                    },
                    "indices" : 14,
                    "material" : 4
                },
                {
                    "attributes" : {
                        "POSITION" : 15,
                        "NORMAL" : 16
                    },
                    "indices" : 17,
                    "material" : 5
                },
                {
                    "attributes" : {
                        "POSITION" : 18,
                        "NORMAL" : 19
                    },
                    "indices" : 20,
                    "material" : 6
                },
                {
                    "attributes" : {
                        "POSITION" : 21,
                        "NORMAL" : 22
                    },
                    "indices" : 23,
                    "material" : 7
                }
            ]
        }
    ],
    "accessors" : [
        {
            "bufferView" : 0,
            "componentType" : 5126,
            "count" : 311,
            "max" : [
                0.5498160123825073,
                1.1699976921081543,
                -0.10494264215230942
            ],
            "min" : [
                0.11217401921749115,
                0.03563366085290909,
                -0.40364664793014526
            ],
            "type" : "VEC3"
        },
        {
            "bufferView" : 1,
            "componentType" : 5126,
            "count" : 311,
            "type" : "VEC3"
        },
        {
            "bufferView" : 2,
            "componentType" : 5123,
            "count" : 1599,
            "type" : "SCALAR"
        },
        {
            "bufferView" : 3,
            "componentType" : 5126,
            "count" : 425,
            "max" : [
                0.6897700428962708,
                1.6703776121139526,
                -0.09046463668346405
            ],
            "min" : [
                0.05426201969385147,
                1.1636476516723633,
                -0.4186326265335083
            ],
            "type" : "VEC3"
        },
        {
            "bufferView" : 4,
            "componentType" : 5126,
            "count" : 425,
            "type" : "VEC3"
        },
        {
            "bufferView" : 5,
            "componentType" : 5123,
            "count" : 1872,
            "type" : "SCALAR"
        },
        {
            "bufferView" : 6,
            "componentType" : 5126,
            "count" : 109,
            "max" : [
                0.5813120007514954,
                1.1943817138671875,
                0.002753359964117408
            ],
            "min" : [
                0.1170000210404396,
                -0.0001803399936761707,
                -0.36376863718032837
            ],
            "type" : "VEC3"
        },
        {
            "bufferView" : 7,
            "componentType" : 5126,
            "count" : 109,
            "type" : "VEC3"
        },
        {
            "bufferView" : 8,
            "componentType" : 5123,
            "count" : 432,
            "type" : "SCALAR"
        },
        {
            "bufferView" : 9,
            "componentType" : 5126,
            "count" : 11,
            "max" : [
                0.40427401661872864,
                1.173844575881958,
                -0.10494264215230942
            ],
            "min" : [
                0.32299402356147766,
                1.1420576572418213,
                -0.1290726363658905
            ],
            "type" : "VEC3"
        },
        {
            "bufferView" : 10,
            "componentType" : 5126,
            "count" : 11,
            "type" : "VEC3"
        },
        {
            "bufferView" : 11,
            "componentType" : 5123,
            "count" : 15,
            "type" : "SCALAR"
        },
        {
            "bufferView" : 12,
            "componentType" : 5126,
            "count" : 523,
            "max" : [
                0.7014540433883667,
                1.8692597150802612,
                -0.06709936261177063
            ],
            "min" : [
                -0.002887980081140995,
                0.8845016360282898,
                -0.4176166355609894
            ],
            "type" : "VEC3"
        },
        {
            "bufferView" : 13,
            "componentType" : 5126,
            "count" : 523,
            "type" : "VEC3"
        },
        {
            "bufferView" : 14,
            "componentType" : 5123,
            "count" : 1593,
            "type" : "SCALAR"
        },
        {
            "bufferView" : 15,
            "componentType" : 5126,
            "count" : 93,
            "max" : [
                0.46345603466033936,
                1.9213296175003052,
                -0.08157464116811752
            ],
            "min" : [
                0.2688920199871063,
                1.7072076797485352,
                -0.30026865005493164
            ],
            "type" : "VEC3"
        },
        {
            "bufferView" : 16,
            "componentType" : 5126,
            "count" : 93,
            "type" : "VEC3"
        },
        {
            "bufferView" : 17,
            "componentType" : 5123,
            "count" : 387,
            "type" : "SCALAR"
        },
        {
            "bufferView" : 18,
            "componentType" : 5126,
            "count" : 11,
            "max" : [
                0.41885510087013245,
                1.787451982498169,
                -0.09249664098024368
            ],
            "min" : [
                0.31986066699028015,
                1.7752817869186401,
                -0.1101599633693695
            ],
            "type" : "VEC3"
        },
        {
            "bufferView" : 19,
            "componentType" : 5126,
            "count" : 11,
            "type" : "VEC3"
        },
        {
            "bufferView" : 20,
            "componentType" : 5123,
            "count" : 15,
            "type" : "SCALAR"
        },
        {
            "bufferView" : 21,
            "componentType" : 5126,
            "count" : 11,
            "max" : [
                0.49314984679222107,
                1.787451982498169,
                -0.06895505636930466
            ],
            "min" : [
                0.30826202034950256,
                1.0915014743804932,
                -0.14628443121910095
            ],
            "type" : "VEC3"
        },
        {
            "bufferView" : 22,
            "componentType" : 5126,
            "count" : 11,
            "type" : "VEC3"
        },
        {
            "bufferView" : 23,
            "componentType" : 5123,
            "count" : 15,
            "type" : "SCALAR"
        }
    ],
    "bufferViews" : [
        {
            "buffer" : 0,
            "byteLength" : 3732,
            "byteOffset" : 0
        },
        {
            "buffer" : 0,
            "byteLength" : 3732,
            "byteOffset" : 3732
        },
        {
            "buffer" : 0,
            "byteLength" : 3198,
            "byteOffset" : 7464
        },
        {
            "buffer" : 0,
            "byteLength" : 5100,
            "byteOffset" : 10664
        },
        {
            "buffer" : 0,
            "byteLength" : 5100,
            "byteOffset" : 15764
        },
        {
            "buffer" : 0,
            "byteLength" : 3744,
            "byteOffset" : 20864
        },
        {
            "buffer" : 0,
            "byteLength" : 1308,
            "byteOffset" : 24608
        },
        {
            "buffer" : 0,
            "byteLength" : 1308,
            "byteOffset" : 25916
        },
        {
            "buffer" : 0,
            "byteLength" : 864,
            "byteOffset" : 27224
        },
        {
            "buffer" : 0,
            "byteLength" : 132,
            "byteOffset" : 28088
        },
        {
            "buffer" : 0,
            "byteLength" : 132,
            "byteOffset" : 28220
        },
        {
            "buffer" : 0,
            "byteLength" : 30,
            "byteOffset" : 28352
        },
        {
            "buffer" : 0,
            "byteLength" : 6276,
            "byteOffset" : 28384
        },
        {
            "buffer" : 0,
            "byteLength" : 6276,
            "byteOffset" : 34660
        },
        {
            "buffer" : 0,
            "byteLength" : 3186,
            "byteOffset" : 40936
        },
        {
            "buffer" : 0,
            "byteLength" : 1116,
            "byteOffset" : 44124
        },
        {
            "buffer" : 0,
            "byteLength" : 1116,
            "byteOffset" : 45240
        },
        {
            "buffer" : 0,
            "byteLength" : 774,
            "byteOffset" : 46356
        },
        {
            "buffer" : 0,
            "byteLength" : 132,
            "byteOffset" : 47132
        },
        {
            "buffer" : 0,
            "byteLength" : 132,
            "byteOffset" : 47264
        },
        {
            "buffer" : 0,
            "byteLength" : 30,
            "byteOffset" : 47396
        },
        {
            "buffer" : 0,
            "byteLength" : 132,
            "byteOffset" : 47428
        },
        {
            "buffer" : 0,
            "byteLength" : 132,
            "byteOffset" : 47560
        },
        {
            "buffer" : 0,
            "byteLength" : 30,
            "byteOffset" : 47692
        }
    ],
    "buffers" : [
        {
            "byteLength" : 47724,
            "uri" : "data:application/octet-stream;base64,"
        }
    ]
}
